<svg xmlns="http://www.w3.org/2000/svg" viewBox="0 0 2760 1770" width="2760" height="1770"><rect width="2760" height="1770" fill="#565A5D"/><rect x="130" y="130" width="1030" height="1030" fill="#E51F2E"/><path transform="translate(305.48631856729696,265.0)" d="M196.60889677949007 0.0 339.6905148684324 265.0923877757984 482.7721329573747 0.0H662.108890407688L441.09701135656337 376.69982071761245L667.8506486494463 760.0H486.76260141225964L339.6905148684324 489.87318772536054L192.6184283246051 760.0H11.176714215959823L238.28401838030135 376.69982071761245L16.918472457718064 0.0Z" fill="#FFFFFF"/><path transform="translate(1294.420894580883,280.0)" d="M549.5075448004754 617.1029243888436V730.0H50.29697963169643V633.7628563681801L286.39484237838576 380.7820079090831Q321.6833567357325 340.81946362505903 342.43306107573454 310.5518462631729Q363.1827654157366 280.2842289012867 372.2801384559044 255.84687012892505Q381.37751149607226 231.40951135656337 381.37751149607226 209.6253413944454Q381.37751149607226 176.58379732907474 370.3237592256986 152.6887415791606Q359.27000695532496 128.79368582924644 337.9953964987954 115.66179128793573Q316.72078604226584 102.52989674662501 285.9610060807113 102.52989674662501Q252.6145494901217 102.52989674662501 228.9384621840257 118.78361020769393Q205.2623748779297 135.03732366876284 192.7853353730925 163.53376157991175Q180.30829586825527 192.03019949106067 180.30829586825527 228.17616557026957H35.57910541911701Q35.57910541911701 162.77043981866518 66.55990411947062 108.57297289502486Q97.54070281982422 54.37550597138454 154.4230769230769 22.004163553426565Q211.30545102632962 -10.367178864531411 288.67865677718277 -10.367178864531411Q365.6814629690988 -10.367178864531411 418.5528480613625 14.459001520177878Q471.4242331536262 39.28518190488717 498.7654675494184 85.53331857199203Q526.1067019452106 131.78145523909689 526.1067019452106 195.87747091775418Q526.1067019452106 232.04185905037343 514.4779031355303 266.4105100946112Q502.8491043258499 300.77916113884896 481.4997958088969 334.5574190328409Q460.1504872919439 368.33567692683295 430.2368977305653 402.9795724219018Q400.32330816918676 437.62346791697075 363.41402032873134 475.00138586694067L236.49898612892235 617.1029243888436Z M1165.2054075471647 457.49012244926706V570.3871980604234H639.1191779503456L632.3250512091669 482.7859580909813L936.4603310218224 0.0H1051.2339773660178L926.8687450870053 207.88794590876648L775.6606224982294 457.49012244926706ZM1082.4501162686192 0.0V730.0H938.0606321565399V0.0Z" fill="#FFFFFF"/><rect x="130" y="1250.0" width="2500" height="390" fill="#FFFFFF"/><path transform="translate(526.1253,1337.5000)" d="M163.446 180.511V215H49.096V180.511ZM63.46 0V215H19.152V0ZM148.585 87.636V121.224H49.096V87.636ZM163.27 0V34.637H49.096V0ZM234.33 0 274.807 74.993 315.284 0H366.017L303.494 106.566L367.641 215H316.412L274.807 138.583L233.201 215H181.872L246.119 106.566L183.496 0ZM482.125 138.387H427.385V103.798H482.125Q494.909 103.798 502.844 99.583Q510.78 95.367 514.478 87.868Q518.177 80.368 518.177 70.861Q518.177 61.287 514.478 53.042Q510.78 44.797 502.844 39.717Q494.909 34.637 482.125 34.637H442.734V215H398.427V0H482.125Q507.49 0 525.574 9.117Q543.659 18.234 553.272 34.175Q562.884 50.116 562.884 70.566Q562.884 91.339 553.272 106.558Q543.659 121.777 525.574 130.082Q507.49 138.387 482.125 138.387ZM740.236 180.511V215H631.936V180.511ZM646.251 0V215H601.944V0ZM941.344 102.408V112.692Q941.344 137.209 934.74 156.656Q928.135 176.102 915.964 189.79Q903.794 203.477 887.069 210.715Q870.345 217.953 850.005 217.953Q829.756 217.953 812.982 210.715Q796.207 203.477 783.915 189.79Q771.623 176.102 764.923 156.656Q758.223 137.209 758.223 112.692V102.408Q758.223 77.891 764.899 58.418Q771.575 38.946 783.744 25.234Q795.912 11.523 812.686 4.285Q829.461 -2.953 849.71 -2.953Q870.05 -2.953 886.824 4.285Q903.599 11.523 915.793 25.234Q927.987 38.946 934.666 58.418Q941.344 77.891 941.344 102.408ZM896.632 112.692V102.113Q896.632 85.118 893.519 72.102Q890.406 59.086 884.376 50.246Q878.346 41.405 869.594 36.887Q860.842 32.369 849.71 32.369Q838.421 32.369 829.767 36.887Q821.112 41.405 815.158 50.246Q809.204 59.086 806.12 72.102Q803.036 85.118 803.036 102.113V112.692Q803.036 129.635 806.12 142.674Q809.204 155.713 815.256 164.678Q821.307 173.642 830.012 178.21Q838.716 182.778 850.005 182.778Q861.184 182.778 869.863 178.21Q878.541 173.642 884.498 164.678Q890.454 155.713 893.543 142.674Q896.632 129.635 896.632 112.692ZM981.809 0H1062.088Q1086.705 0 1104.516 7.383Q1122.326 14.766 1131.913 29.214Q1141.499 43.661 1141.499 64.83Q1141.499 82.097 1135.669 94.43Q1129.839 106.762 1119.29 114.953Q1108.742 123.143 1094.538 127.978L1080.461 135.482H1010.767L1010.472 100.892H1062.374Q1074.029 100.892 1081.717 96.753Q1089.404 92.614 1093.322 85.21Q1097.24 77.806 1097.24 68.031Q1097.24 57.729 1093.367 50.227Q1089.495 42.725 1081.686 38.681Q1073.877 34.637 1062.088 34.637H1026.116V215H981.809ZM1102.069 215 1052.997 119.142 1099.787 118.894 1149.497 212.928V215ZM1328.439 180.511V215H1214.089V180.511ZM1228.453 0V215H1184.145V0ZM1313.577 87.636V121.224H1214.089V87.636ZM1328.263 0V34.637H1214.089V0ZM1558.603 158.758Q1558.603 152.928 1556.865 148.296Q1555.126 143.664 1550.592 139.739Q1546.057 135.814 1537.791 131.982Q1529.524 128.15 1516.416 124.02Q1501.668 119.295 1488.621 113.362Q1475.575 107.429 1465.619 99.548Q1455.663 91.667 1449.99 81.171Q1444.317 70.675 1444.317 56.823Q1444.317 43.371 1450.185 32.389Q1456.054 21.407 1466.726 13.507Q1477.399 5.606 1491.937 1.327Q1506.475 -2.953 1523.914 -2.953Q1547.731 -2.953 1565.439 5.575Q1583.147 14.104 1592.957 29.044Q1602.768 43.985 1602.768 63.22H1558.708Q1558.708 53.813 1554.79 46.587Q1550.873 39.361 1542.99 35.222Q1535.107 31.083 1523.114 31.083Q1511.606 31.083 1503.914 34.56Q1496.221 38.037 1492.372 43.913Q1488.524 49.788 1488.524 57.028Q1488.524 62.519 1491.303 66.956Q1494.083 71.393 1499.51 75.218Q1504.938 79.043 1512.962 82.43Q1520.985 85.816 1531.474 89.008Q1548.984 94.376 1562.324 100.976Q1575.664 107.575 1584.702 115.876Q1593.741 124.176 1598.349 134.694Q1602.958 145.211 1602.958 158.463Q1602.958 172.506 1597.442 183.538Q1591.926 194.57 1581.632 202.251Q1571.339 209.932 1556.982 213.943Q1542.625 217.953 1524.943 217.953Q1508.928 217.953 1493.43 213.769Q1477.932 209.584 1465.343 200.965Q1452.753 192.345 1445.238 179.062Q1437.724 165.779 1437.724 147.683H1482.084Q1482.084 157.657 1485.166 164.607Q1488.247 171.556 1493.953 175.874Q1499.66 180.192 1507.533 182.128Q1515.407 184.065 1524.943 184.065Q1536.455 184.065 1543.89 180.78Q1551.325 177.496 1554.964 171.769Q1558.603 166.041 1558.603 158.758ZM1688.597 0V215H1644.39V0Z" fill="#58595B"/></svg>
